<?xml version="1.0" encoding="UTF-8"?>
<!DOCTYPE svg PUBLIC "-//W3C//DTD SVG 1.1//EN" "http://www.w3.org/Graphics/SVG/1.1/DTD/svg11.dtd">
<!-- Creator: CorelDRAW X7 -->
<svg xmlns="http://www.w3.org/2000/svg" xml:space="preserve" width="3.74261in" height="3.90578in" version="1.1" style="shape-rendering:geometricPrecision; text-rendering:geometricPrecision; image-rendering:optimizeQuality; fill-rule:evenodd; clip-rule:evenodd"
viewBox="0 0 3187 3326"
 xmlns:xlink="http://www.w3.org/1999/xlink">
 <defs>
  <style type="text/css">
    .fil0 {fill:#00A0E3}
  </style>
 </defs>
 <g id="Layer_x0020_1">
  <metadata id="CorelCorpID_0Corel-Layer"/>
  <path class="fil0" d="M1596 0c-1473,115 -1934,1590 -1351,2513 270,427 775,813 1407,813 901,0 1519,-556 1535,-1220 -71,238 -176,416 -271,460 171,-381 210,-699 163,-976 -53,265 -97,449 -245,649 -1,2 -2,-91 -7,-115 -14,16 -51,90 -99,183 -215,420 -814,539 -1040,539 -517,0 -801,-276 -973,-532 -604,-899 84,-2046 1022,-1960 691,63 1007,471 1190,1074 -81,-589 -435,-966 -1083,-1130 -8,-9 83,-10 52,-15 -329,-45 -589,-5 -918,107 178,-170 496,-225 891,-216 52,0 -153,-81 -103,-68 697,187 1108,503 1299,987 -91,-258 -371,-1093 -1469,-1093z"/>
 </g>
</svg>
